STARTFONT 2.3
FONT -FontForge-Henny Penny-Book-R-Normal--8-80-72-72-P-45-ISO10646-1
SIZE 8 72 72  4
FONTBOUNDINGBOX 12 14 -2 -5
COMMENT "Generated by fontforge, http://fontforge.sourceforge.net"
COMMENT "Copyright (c) 2012, Brownfox (gayaneh.b@gmail.com), with Reserved Font Name "Henny Penny""
STARTPROPERTIES 40
FOUNDRY "FontForge"
FAMILY_NAME "Henny Penny"
WEIGHT_NAME "Book"
SLANT "R"
SETWIDTH_NAME "Normal"
ADD_STYLE_NAME ""
PIXEL_SIZE 8
POINT_SIZE 80
RESOLUTION_X 72
RESOLUTION_Y 72
SPACING "P"
AVERAGE_WIDTH 45
CHARSET_REGISTRY "ISO10646"
CHARSET_ENCODING "1"
FONTNAME_REGISTRY ""
CHARSET_COLLECTIONS "ISO10646-1"
BITS_PER_PIXEL 4
FONT_NAME "HennyPenny-Regular"
FACE_NAME "Henny Penny"
COPYRIGHT "Copyright (c) 2012, Brownfox (gayaneh.b@gmail.com), with Reserved Font Name "Henny Penny""
FONT_VERSION "1.001"
FONT_ASCENT 6
FONT_DESCENT 2
UNDERLINE_POSITION -1
UNDERLINE_THICKNESS 1
X_HEIGHT 4
CAP_HEIGHT 6
RAW_ASCENT 799
RAW_DESCENT 200
NORM_SPACE 2
RELATIVE_WEIGHT 40
RELATIVE_SETWIDTH 50
SUPERSCRIPT_X 0
SUPERSCRIPT_Y 2
SUPERSCRIPT_SIZE 4
SUBSCRIPT_X 0
SUBSCRIPT_Y 0
SUBSCRIPT_SIZE 4
AVG_LOWERCASE_WIDTH 40
AVG_UPPERCASE_WIDTH 57
ENDPROPERTIES
CHARS 233
STARTCHAR space
ENCODING 32
SWIDTH 270 0
DWIDTH 2 0
BBX 1 1 0 0
BITMAP
00
ENDCHAR
STARTCHAR exclam
ENCODING 33
SWIDTH 249 0
DWIDTH 2 0
BBX 2 8 0 0
BITMAP
87
78
57
36
24
22
00
75
ENDCHAR
STARTCHAR quotedbl
ENCODING 34
SWIDTH 292 0
DWIDTH 2 0
BBX 2 3 0 4
BITMAP
77
67
34
ENDCHAR
STARTCHAR numbersign
ENCODING 35
SWIDTH 1030 0
DWIDTH 8 0
BBX 8 10 0 -3
BITMAP
00001000
00004200
11041400
13398333
00335220
25A94200
02560000
06420000
00600000
00200000
ENDCHAR
STARTCHAR dollar
ENCODING 36
SWIDTH 799 0
DWIDTH 6 0
BBX 6 9 0 -2
BITMAP
000122
009FE3
00E560
00BC00
001E80
0324E0
0B61D0
16DE60
003000
ENDCHAR
STARTCHAR percent
ENCODING 37
SWIDTH 789 0
DWIDTH 6 0
BBX 7 7 0 0
BITMAP
3EB02300
85A26000
3EB61000
00520000
0247EA00
150C1C10
5008E900
ENDCHAR
STARTCHAR ampersand
ENCODING 38
SWIDTH 773 0
DWIDTH 6 0
BBX 6 8 0 -1
BITMAP
07E600
092600
099000
2E4184
97B253
A96850
3DED93
0000A7
ENDCHAR
STARTCHAR quotesingle
ENCODING 39
SWIDTH 174 0
DWIDTH 1 0
BBX 1 3 0 3
BITMAP
70
70
30
ENDCHAR
STARTCHAR parenleft
ENCODING 40
SWIDTH 431 0
DWIDTH 3 0
BBX 4 12 0 -4
BITMAP
0400
1600
7200
B000
C000
D000
C100
8500
2B00
0840
0081
0001
ENDCHAR
STARTCHAR parenright
ENCODING 41
SWIDTH 443 0
DWIDTH 4 0
BBX 4 8 0 -2
BITMAP
2810
03B0
00A4
0076
0076
00B1
0560
4400
ENDCHAR
STARTCHAR asterisk
ENCODING 42
SWIDTH 490 0
DWIDTH 4 0
BBX 4 4 0 4
BITMAP
0210
0464
5790
0764
ENDCHAR
STARTCHAR plus
ENCODING 43
SWIDTH 440 0
DWIDTH 4 0
BBX 4 5 0 0
BITMAP
0210
0320
8FD1
0220
0030
ENDCHAR
STARTCHAR comma
ENCODING 44
SWIDTH 251 0
DWIDTH 2 0
BBX 2 3 0 -2
BITMAP
88
38
22
ENDCHAR
STARTCHAR hyphen
ENCODING 45
SWIDTH 436 0
DWIDTH 3 0
BBX 3 2 0 2
BITMAP
1000
6ED0
ENDCHAR
STARTCHAR period
ENCODING 46
SWIDTH 238 0
DWIDTH 2 0
BBX 2 1 0 0
BITMAP
76
ENDCHAR
STARTCHAR slash
ENCODING 47
SWIDTH 690 0
DWIDTH 6 0
BBX 6 8 0 0
BITMAP
000002
000041
000240
000600
006000
042000
150000
500000
ENDCHAR
STARTCHAR zero
ENCODING 48
SWIDTH 723 0
DWIDTH 6 0
BBX 6 6 0 1
BITMAP
19ED70
8812C4
D10059
D20049
8B21B5
09EE70
ENDCHAR
STARTCHAR one
ENCODING 49
SWIDTH 505 0
DWIDTH 4 0
BBX 4 8 0 -1
BITMAP
0420
3E50
BB70
04A0
02D0
00F2
19FD
4720
ENDCHAR
STARTCHAR two
ENCODING 50
SWIDTH 534 0
DWIDTH 4 0
BBX 5 7 0 -1
BITMAP
3DD300
619900
307600
008000
040000
683210
01A900
ENDCHAR
STARTCHAR three
ENCODING 51
SWIDTH 511 0
DWIDTH 4 0
BBX 5 7 0 -1
BITMAP
210000
9FE200
510000
029300
301D00
812E10
3DE700
ENDCHAR
STARTCHAR four
ENCODING 52
SWIDTH 712 0
DWIDTH 6 0
BBX 6 9 0 -1
BITMAP
000100
003500
018600
233900
951C00
038E72
000A80
003DD4
000024
ENDCHAR
STARTCHAR five
ENCODING 53
SWIDTH 757 0
DWIDTH 6 0
BBX 6 7 0 -1
BITMAP
002C67
0051A7
016600
3005A0
4003D0
921A90
3DEA10
ENDCHAR
STARTCHAR six
ENCODING 54
SWIDTH 598 0
DWIDTH 5 0
BBX 5 6 0 0
BITMAP
19EC10
8A1260
CBEC20
D60590
970490
1AEC20
ENDCHAR
STARTCHAR seven
ENCODING 55
SWIDTH 507 0
DWIDTH 4 0
BBX 4 7 0 0
BITMAP
1003
EFF9
4152
0030
0250
0920
1E00
ENDCHAR
STARTCHAR eight
ENCODING 56
SWIDTH 476 0
DWIDTH 4 0
BBX 4 7 0 0
BITMAP
3DD1
9823
6D60
2AD3
701A
A129
6ED3
ENDCHAR
STARTCHAR nine
ENCODING 57
SWIDTH 601 0
DWIDTH 5 0
BBX 5 6 0 0
BITMAP
4DE900
C31B70
C409A0
4DEE90
002C40
6ED700
ENDCHAR
STARTCHAR colon
ENCODING 58
SWIDTH 246 0
DWIDTH 2 0
BBX 2 4 0 0
BITMAP
76
00
00
67
ENDCHAR
STARTCHAR semicolon
ENCODING 59
SWIDTH 266 0
DWIDTH 2 0
BBX 2 5 0 -1
BITMAP
59
00
00
68
33
ENDCHAR
STARTCHAR less
ENCODING 60
SWIDTH 522 0
DWIDTH 4 0
BBX 4 5 0 0
BITMAP
0002
0151
4600
0461
0003
ENDCHAR
STARTCHAR equal
ENCODING 61
SWIDTH 655 0
DWIDTH 5 0
BBX 5 2 0 2
BITMAP
028CB0
AFFC30
ENDCHAR
STARTCHAR greater
ENCODING 62
SWIDTH 533 0
DWIDTH 4 0
BBX 4 5 0 0
BITMAP
2000
0530
0026
0151
0300
ENDCHAR
STARTCHAR question
ENCODING 63
SWIDTH 564 0
DWIDTH 5 0
BBX 5 8 0 -1
BITMAP
3DE900
B32E30
A81D20
01A400
040000
1D0000
000000
0A0000
ENDCHAR
STARTCHAR at
ENCODING 64
SWIDTH 898 0
DWIDTH 7 0
BBX 7 8 0 -2
BITMAP
019EE800
0A511670
43BED350
4681C140
4791C370
52DF7E40
1A249000
04DE5000
ENDCHAR
STARTCHAR A
ENCODING 65
SWIDTH 784 0
DWIDTH 6 0
BBX 7 7 0 0
BITMAP
09F90000
006D0000
005B5000
05AAB000
0A6CF200
FC00C900
1505FF50
ENDCHAR
STARTCHAR B
ENCODING 66
SWIDTH 685 0
DWIDTH 5 0
BBX 6 8 0 -1
BITMAP
3BDE60
0B0790
0A2510
0AEFC0
0A31C5
0A61C4
0DFE90
410000
ENDCHAR
STARTCHAR C
ENCODING 67
SWIDTH 742 0
DWIDTH 6 0
BBX 6 7 0 -1
BITMAP
000003
19EFE4
9C2046
D40000
D60003
9D4037
08EFB1
ENDCHAR
STARTCHAR D
ENCODING 68
SWIDTH 726 0
DWIDTH 6 0
BBX 6 7 0 -2
BITMAP
9CEFB1
2D12C8
0B007A
0C31C6
1EFD70
882000
300000
ENDCHAR
STARTCHAR E
ENCODING 69
SWIDTH 557 0
DWIDTH 4 0
BBX 5 8 0 -2
BITMAP
558C00
5C1000
1D1000
0EE000
0B4000
0B1140
CFEE50
001310
ENDCHAR
STARTCHAR F
ENCODING 70
SWIDTH 533 0
DWIDTH 4 0
BBX 5 7 0 0
BITMAP
358C60
8F2340
0D4310
0BF100
096100
094000
BCC000
ENDCHAR
STARTCHAR G
ENCODING 71
SWIDTH 750 0
DWIDTH 6 0
BBX 6 6 0 0
BITMAP
000003
19EC16
9A11A4
E30064
C92EF7
3CFEA3
ENDCHAR
STARTCHAR H
ENCODING 72
SWIDTH 743 0
DWIDTH 6 0
BBX 6 10 0 -2
BITMAP
210000
1EF325
0E1BF9
0D00B3
0D01B2
0EFEF2
0E1092
0F09FB
BF6101
201000
ENDCHAR
STARTCHAR I
ENCODING 73
SWIDTH 438 0
DWIDTH 4 0
BBX 5 9 -1 -2
BITMAP
1DDDD0
02E700
00D200
00C000
00B000
00A000
00B000
09FB00
341000
ENDCHAR
STARTCHAR J
ENCODING 74
SWIDTH 628 0
DWIDTH 5 0
BBX 6 10 0 -2
BITMAP
000264
02FFB2
002F10
000D10
000C10
000C00
000C00
003A00
BCB400
BF7000
ENDCHAR
STARTCHAR K
ENCODING 75
SWIDTH 866 0
DWIDTH 7 0
BBX 7 9 0 -1
BITMAP
01331000
DF66FB00
2E064000
0E660000
0ED60000
0C3D1000
0C09C250
4FA09EC0
00300000
ENDCHAR
STARTCHAR L
ENCODING 76
SWIDTH 660 0
DWIDTH 5 0
BBX 6 7 0 -1
BITMAP
210000
9FF900
099000
086000
095040
8FFFE1
221000
ENDCHAR
STARTCHAR M
ENCODING 77
SWIDTH 1089 0
DWIDTH 9 0
BBX 9 7 0 -1
BITMAP
0100007F30
07C700B300
007A408300
0042D14700
0010302D10
0130007FE0
C000003100
ENDCHAR
STARTCHAR N
ENCODING 78
SWIDTH 799 0
DWIDTH 6 0
BBX 7 9 0 -3
BITMAP
01000110
EF80EF50
0CF81600
048F9400
0409F400
04008300
17000000
DF600000
01200000
ENDCHAR
STARTCHAR O
ENCODING 79
SWIDTH 747 0
DWIDTH 6 0
BBX 6 6 0 0
BITMAP
19ED80
9813D8
D1006D
D2004D
9B21A8
19EE91
ENDCHAR
STARTCHAR P
ENCODING 80
SWIDTH 623 0
DWIDTH 5 0
BBX 5 7 0 -1
BITMAP
EFFF90
0A62E0
07FE60
075000
085000
0A6000
4EC300
ENDCHAR
STARTCHAR Q
ENCODING 81
SWIDTH 804 0
DWIDTH 6 0
BBX 10 11 0 -4
BITMAP
06DEA20000
6A12AC0000
C1001E3000
E0000A4000
C40BDC2000
6D457C0000
08EEAD0000
00000C3000
00000A8000
000005E241
000000AE80
ENDCHAR
STARTCHAR R
ENCODING 82
SWIDTH 869 0
DWIDTH 7 0
BBX 8 7 0 -1
BITMAP
EFFE6000
1E46C000
0AFF9000
093D1000
09489122
AFC09EC0
00200000
ENDCHAR
STARTCHAR S
ENCODING 83
SWIDTH 517 0
DWIDTH 4 0
BBX 5 8 0 -1
BITMAP
000100
09E500
0C1700
063100
107300
600C00
A41E20
35E900
ENDCHAR
STARTCHAR T
ENCODING 84
SWIDTH 659 0
DWIDTH 5 0
BBX 6 8 0 -1
BITMAP
CFFFF7
703815
304800
005800
006800
007A00
02EFE0
064000
ENDCHAR
STARTCHAR U
ENCODING 85
SWIDTH 690 0
DWIDTH 6 0
BBX 6 6 0 0
BITMAP
138400
EFADED
2F2080
0F2040
0D8170
04DE40
ENDCHAR
STARTCHAR V
ENCODING 86
SWIDTH 798 0
DWIDTH 6 0
BBX 7 7 0 0
BITMAP
00330000
DFD304B0
07B0CF50
00C40700
005D3200
000D9000
00063000
ENDCHAR
STARTCHAR W
ENCODING 87
SWIDTH 1120 0
DWIDTH 9 0
BBX 11 7 -1 -1
BITMAP
000000004100
003100009FE0
16E003001800
00B43C206000
005B46B25000
001D11EB0000
000200730000
ENDCHAR
STARTCHAR X
ENCODING 88
SWIDTH 868 0
DWIDTH 7 0
BBX 7 8 0 -1
BITMAP
00230000
EFF71100
04D70C70
002E9300
0018C000
02705500
AFA3FE30
01500010
ENDCHAR
STARTCHAR Y
ENCODING 89
SWIDTH 796 0
DWIDTH 6 0
BBX 8 9 0 -2
BITMAP
01400300
DF801EF1
1AA02400
009D6000
000D0000
000C1000
001E2000
01FFA000
00013000
ENDCHAR
STARTCHAR Z
ENCODING 90
SWIDTH 627 0
DWIDTH 5 0
BBX 6 8 0 -1
BITMAP
210200
8FF900
51B300
01B000
056030
081090
0DBEF1
273100
ENDCHAR
STARTCHAR bracketleft
ENCODING 91
SWIDTH 344 0
DWIDTH 3 0
BBX 3 9 0 -2
BITMAP
4C40
7600
8300
A200
B100
C100
D100
E200
BF70
ENDCHAR
STARTCHAR backslash
ENCODING 92
SWIDTH 347 0
DWIDTH 3 0
BBX 3 9 0 -1
BITMAP
2000
5000
4000
2300
0500
0500
0410
0150
0040
ENDCHAR
STARTCHAR bracketright
ENCODING 93
SWIDTH 334 0
DWIDTH 3 0
BBX 3 8 0 -2
BITMAP
0100
6F20
0B40
0950
0970
0980
1C50
4000
ENDCHAR
STARTCHAR asciicircum
ENCODING 94
SWIDTH 658 0
DWIDTH 5 0
BBX 5 2 0 4
BITMAP
06D610
884AB0
ENDCHAR
STARTCHAR underscore
ENCODING 95
SWIDTH 678 0
DWIDTH 5 0
BBX 5 2 0 -3
BITMAP
17ADE0
221100
ENDCHAR
STARTCHAR grave
ENCODING 96
SWIDTH 278 0
DWIDTH 2 0
BBX 2 2 0 6
BITMAP
73
07
ENDCHAR
STARTCHAR a
ENCODING 97
SWIDTH 527 0
DWIDTH 4 0
BBX 5 6 0 -1
BITMAP
4EA000
55C200
009500
8EF800
AE9B20
000D40
ENDCHAR
STARTCHAR b
ENCODING 98
SWIDTH 582 0
DWIDTH 5 0
BBX 6 10 -1 -1
BITMAP
053000
9F4000
084000
065000
056000
04BDD2
04A197
03B197
05FFC1
0B4100
ENDCHAR
STARTCHAR c
ENCODING 99
SWIDTH 437 0
DWIDTH 4 0
BBX 4 4 0 1
BITMAP
3DD1
A1D2
B214
5ED2
ENDCHAR
STARTCHAR d
ENCODING 100
SWIDTH 523 0
DWIDTH 4 0
BBX 5 8 0 0
BITMAP
01E900
004900
004900
003800
003800
6EE800
D43900
7EEE40
ENDCHAR
STARTCHAR e
ENCODING 101
SWIDTH 434 0
DWIDTH 3 0
BBX 4 4 0 0
BITMAP
3DE3
CFD2
C514
5ED2
ENDCHAR
STARTCHAR f
ENCODING 102
SWIDTH 299 0
DWIDTH 2 0
BBX 5 11 -1 -2
BITMAP
004E70
0091A0
008A70
038100
4EF700
039000
039000
03A000
03B000
0AFB00
041000
ENDCHAR
STARTCHAR g
ENCODING 103
SWIDTH 567 0
DWIDTH 5 0
BBX 6 8 -1 -3
BITMAP
0001D9
04EE40
0A7590
05EE40
02EE90
0A32B3
1F31A2
09FD50
ENDCHAR
STARTCHAR h
ENCODING 104
SWIDTH 566 0
DWIDTH 5 0
BBX 6 9 -1 -1
BITMAP
1EC000
00A000
009000
018000
02BE80
04A2D0
0760D0
4FE8E7
000100
ENDCHAR
STARTCHAR i
ENCODING 105
SWIDTH 301 0
DWIDTH 2 0
BBX 3 6 0 1
BITMAP
2900
0000
DB00
4900
4900
CF40
ENDCHAR
STARTCHAR j
ENCODING 106
SWIDTH 367 0
DWIDTH 3 0
BBX 4 9 -1 -4
BITMAP
00B2
08F8
009A
002B
000B
000A
9A18
8184
7E90
ENDCHAR
STARTCHAR k
ENCODING 107
SWIDTH 567 0
DWIDTH 5 0
BBX 6 9 -1 -1
BITMAP
8F7000
047000
027000
028300
028BE0
01C810
01CC23
02C7E5
1CCD00
ENDCHAR
STARTCHAR l
ENCODING 108
SWIDTH 354 0
DWIDTH 3 0
BBX 4 7 -1 0
BITMAP
0480
5DB0
02C0
00C0
00C0
00C1
08FC
ENDCHAR
STARTCHAR m
ENCODING 109
SWIDTH 708 0
DWIDTH 6 0
BBX 6 5 0 0
BITMAP
020000
4DEBE1
0BC9B2
9F21C1
000012
ENDCHAR
STARTCHAR n
ENCODING 110
SWIDTH 584 0
DWIDTH 5 0
BBX 5 6 0 -1
BITMAP
020000
787D10
2A1950
0A0830
5FCF20
001230
ENDCHAR
STARTCHAR o
ENCODING 111
SWIDTH 503 0
DWIDTH 4 0
BBX 4 4 0 1
BITMAP
3DE4
B53C
B61B
3DE4
ENDCHAR
STARTCHAR p
ENCODING 112
SWIDTH 509 0
DWIDTH 4 0
BBX 4 8 0 -4
BITMAP
BA00
0DEA
0B1D
1FE7
1B00
3C00
AF70
0110
ENDCHAR
STARTCHAR q
ENCODING 113
SWIDTH 505 0
DWIDTH 4 0
BBX 4 8 0 -4
BITMAP
7ED5
D384
8FD4
0084
0084
0094
08FB
0026
ENDCHAR
STARTCHAR r
ENCODING 114
SWIDTH 414 0
DWIDTH 3 0
BBX 4 5 0 0
BITMAP
CAE9
2E48
0C00
1E00
AFB0
ENDCHAR
STARTCHAR s
ENCODING 115
SWIDTH 482 0
DWIDTH 4 0
BBX 4 7 0 -1
BITMAP
0001
0AC5
0914
0231
3336
643C
05E7
ENDCHAR
STARTCHAR t
ENCODING 116
SWIDTH 434 0
DWIDTH 3 0
BBX 4 6 0 0
BITMAP
0250
0930
BFE0
3B00
6935
2DD2
ENDCHAR
STARTCHAR u
ENCODING 117
SWIDTH 744 0
DWIDTH 6 0
BBX 6 4 0 0
BITMAP
CB1FA0
0C01C0
0A53DD
04E821
ENDCHAR
STARTCHAR v
ENCODING 118
SWIDTH 600 0
DWIDTH 5 0
BBX 5 5 0 0
BITMAP
4A1000
0D2DA0
067500
01C400
007200
ENDCHAR
STARTCHAR w
ENCODING 119
SWIDTH 745 0
DWIDTH 6 0
BBX 6 5 0 0
BITMAP
15003C
DD0843
2F3C80
0B7370
053000
ENDCHAR
STARTCHAR x
ENCODING 120
SWIDTH 548 0
DWIDTH 4 0
BBX 5 4 0 1
BITMAP
FFCF60
1A4200
05E200
78FF20
ENDCHAR
STARTCHAR y
ENCODING 121
SWIDTH 659 0
DWIDTH 5 0
BBX 6 9 0 -4
BITMAP
285010
DC1EF2
4B04B0
1E26A0
07E990
000460
000720
0D8A00
0DD300
ENDCHAR
STARTCHAR z
ENCODING 122
SWIDTH 460 0
DWIDTH 4 0
BBX 4 5 0 -1
BITMAP
BEE1
5150
0700
6FFA
2000
ENDCHAR
STARTCHAR braceleft
ENCODING 123
SWIDTH 460 0
DWIDTH 4 0
BBX 4 10 0 -2
BITMAP
04E5
0840
0840
0770
5B20
1700
0740
0850
0870
04E7
ENDCHAR
STARTCHAR bar
ENCODING 124
SWIDTH 368 0
DWIDTH 3 0
BBX 1 9 1 -2
BITMAP
40
40
40
40
40
40
40
40
30
ENDCHAR
STARTCHAR braceright
ENCODING 125
SWIDTH 476 0
DWIDTH 4 0
BBX 4 9 0 -2
BITMAP
AE50
08A0
05A0
0084
0073
0066
0029
0058
06C2
ENDCHAR
STARTCHAR asciitilde
ENCODING 126
SWIDTH 733 0
DWIDTH 6 0
BBX 6 1 0 1
BITMAP
4EFFD3
ENDCHAR
STARTCHAR nonbreakingspace
ENCODING 160
SWIDTH 270 0
DWIDTH 2 0
BBX 1 1 0 0
BITMAP
00
ENDCHAR
STARTCHAR exclamdown
ENCODING 161
SWIDTH 247 0
DWIDTH 2 0
BBX 2 9 0 -1
BITMAP
75
00
11
33
45
56
68
88
76
ENDCHAR
STARTCHAR cent
ENCODING 162
SWIDTH 799 0
DWIDTH 6 0
BBX 4 8 1 -2
BITMAP
0200
0BE9
7B1C
A330
8845
1CF6
0022
0002
ENDCHAR
STARTCHAR sterling
ENCODING 163
SWIDTH 799 0
DWIDTH 6 0
BBX 5 7 1 -1
BITMAP
08E900
2A4B00
4A0000
4E5000
099000
03A130
EFAE50
ENDCHAR
STARTCHAR currency
ENCODING 164
SWIDTH 732 0
DWIDTH 6 0
BBX 6 6 0 0
BITMAP
000400
3BEE20
360260
540360
1EFB30
170031
ENDCHAR
STARTCHAR yen
ENCODING 165
SWIDTH 799 0
DWIDTH 6 0
BBX 7 9 0 -2
BITMAP
00210000
9FC01510
07F3F900
00AC6000
002F2000
04EFFD00
015FF200
02AFE000
02510000
ENDCHAR
STARTCHAR brokenbar
ENCODING 166
SWIDTH 341 0
DWIDTH 3 0
BBX 1 9 1 -2
BITMAP
30
40
40
20
30
40
40
40
40
ENDCHAR
STARTCHAR section
ENCODING 167
SWIDTH 546 0
DWIDTH 4 0
BBX 4 9 0 -2
BITMAP
0AE8
2A1C
1E60
64A8
7809
1AB5
0047
0006
0AE5
ENDCHAR
STARTCHAR dieresis
ENCODING 168
SWIDTH 393 0
DWIDTH 3 0
BBX 3 1 0 5
BITMAP
2980
ENDCHAR
STARTCHAR copyright
ENCODING 169
SWIDTH 1023 0
DWIDTH 8 0
BBX 8 7 0 -1
BITMAP
02AEEB40
1B4124B4
626E9008
50C28106
616E7017
2A3114B2
03BEEA20
ENDCHAR
STARTCHAR ordfeminine
ENCODING 170
SWIDTH 558 0
DWIDTH 4 0
BBX 5 4 0 3
BITMAP
4E8000
83B000
4EF410
6FAD00
ENDCHAR
STARTCHAR guillemotleft
ENCODING 171
SWIDTH 608 0
DWIDTH 5 0
BBX 5 7 0 -2
BITMAP
000130
006410
075900
6D3D00
087740
009150
001400
ENDCHAR
STARTCHAR logicalnot
ENCODING 172
SWIDTH 616 0
DWIDTH 5 0
BBX 5 3 0 1
BITMAP
8EDC70
000060
000010
ENDCHAR
STARTCHAR uni00AD
ENCODING 173
SWIDTH 436 0
DWIDTH 3 0
BBX 3 2 0 2
BITMAP
1000
6ED0
ENDCHAR
STARTCHAR registered
ENCODING 174
SWIDTH 1048 0
DWIDTH 8 0
BBX 8 7 0 -2
BITMAP
029EFC50
1BFFF676
61377705
604FD233
63EEFE45
1B511285
02AEEC50
ENDCHAR
STARTCHAR macron
ENCODING 175
SWIDTH 382 0
DWIDTH 3 0
BBX 3 1 0 6
BITMAP
6E90
ENDCHAR
STARTCHAR degree
ENCODING 176
SWIDTH 346 0
DWIDTH 3 0
BBX 3 2 0 6
BITMAP
6E30
6E30
ENDCHAR
STARTCHAR plusminus
ENCODING 177
SWIDTH 580 0
DWIDTH 5 0
BBX 5 3 0 1
BITMAP
005000
5EEB20
8DE600
ENDCHAR
STARTCHAR twosuperior
ENCODING 178
SWIDTH 365 0
DWIDTH 3 0
BBX 3 5 0 2
BITMAP
1D40
1390
0640
6420
0820
ENDCHAR
STARTCHAR threesuperior
ENCODING 179
SWIDTH 371 0
DWIDTH 3 0
BBX 3 4 0 3
BITMAP
9C00
2840
52B0
5E60
ENDCHAR
STARTCHAR acute
ENCODING 180
SWIDTH 234 0
DWIDTH 2 0
BBX 2 2 0 6
BITMAP
25
50
ENDCHAR
STARTCHAR mu
ENCODING 181
SWIDTH 634 0
DWIDTH 5 0
BBX 5 8 0 -3
BITMAP
000100
A12A00
A10B00
972E40
9BDBD0
830000
850000
770000
ENDCHAR
STARTCHAR paragraph
ENCODING 182
SWIDTH 707 0
DWIDTH 6 0
BBX 6 10 0 -3
BITMAP
000141
5CEF70
EF9440
AF7440
067540
027550
028560
0196A0
06A5F9
6B6000
ENDCHAR
STARTCHAR periodcentered
ENCODING 183
SWIDTH 238 0
DWIDTH 2 0
BBX 2 1 0 3
BITMAP
76
ENDCHAR
STARTCHAR cedilla
ENCODING 184
SWIDTH 332 0
DWIDTH 3 0
BBX 3 3 0 -2
BITMAP
0400
0820
6E10
ENDCHAR
STARTCHAR onesuperior
ENCODING 185
SWIDTH 336 0
DWIDTH 3 0
BBX 3 4 0 3
BITMAP
0800
1900
4D10
7C70
ENDCHAR
STARTCHAR ordmasculine
ENCODING 186
SWIDTH 503 0
DWIDTH 4 0
BBX 4 4 0 2
BITMAP
3DD3
714A
9319
3DE4
ENDCHAR
STARTCHAR guillemotright
ENCODING 187
SWIDTH 778 0
DWIDTH 6 0
BBX 6 7 0 -2
BITMAP
104100
440820
08A5A6
00B5C3
072A10
143500
104000
ENDCHAR
STARTCHAR onequarter
ENCODING 188
SWIDTH 876 0
DWIDTH 7 0
BBX 7 10 0 -2
BITMAP
00000200
08001500
19006000
4D152000
7C941400
00605600
05102830
3305EF50
00019FC0
00001000
ENDCHAR
STARTCHAR onehalf
ENCODING 189
SWIDTH 762 0
DWIDTH 6 0
BBX 6 9 0 -1
BITMAP
000002
080015
190060
4D1520
7C95C6
00612B
051046
330462
000072
ENDCHAR
STARTCHAR threequarters
ENCODING 190
SWIDTH 922 0
DWIDTH 7 0
BBX 8 10 0 -2
BITMAP
00000010
9C000510
28403300
52B16000
5E660500
00421A00
02400940
0501DFB0
00004EF3
00000100
ENDCHAR
STARTCHAR questiondown
ENCODING 191
SWIDTH 571 0
DWIDTH 5 0
BBX 5 8 0 -2
BITMAP
01D000
000000
004000
016000
2B1000
A84E30
BB1750
4DFB00
ENDCHAR
STARTCHAR Agrave
ENCODING 192
SWIDTH 784 0
DWIDTH 6 0
BBX 7 9 0 0
BITMAP
08100000
01600000
09F90000
006D0000
005B5000
05AAB000
0A6CF200
FC00C900
1505FF50
ENDCHAR
STARTCHAR Aacute
ENCODING 193
SWIDTH 784 0
DWIDTH 6 0
BBX 7 9 0 0
BITMAP
00160000
00410000
09F90000
006D0000
005B5000
05AAB000
0A6CF200
FC00C900
1505FF50
ENDCHAR
STARTCHAR Acircumflex
ENCODING 194
SWIDTH 784 0
DWIDTH 6 0
BBX 7 8 0 0
BITMAP
00491000
0AFE8000
006D0000
005B5000
05AAB000
0A6CF200
FC00C900
1505FF50
ENDCHAR
STARTCHAR Atilde
ENCODING 195
SWIDTH 784 0
DWIDTH 6 0
BBX 7 8 0 0
BITMAP
05FE1000
09F90000
006D0000
005B5000
05AAB000
0A6CF200
FC00C900
1505FF50
ENDCHAR
STARTCHAR Adieresis
ENCODING 196
SWIDTH 784 0
DWIDTH 6 0
BBX 7 8 0 0
BITMAP
01B91000
09F90000
006D0000
005B5000
05AAB000
0A6CF200
FC00C900
1505FF50
ENDCHAR
STARTCHAR Aring
ENCODING 197
SWIDTH 784 0
DWIDTH 6 0
BBX 7 9 0 0
BITMAP
00AB0000
00AB0000
09F90000
006D0000
005B5000
05AAB000
0A6CF200
FC00C900
1505FF50
ENDCHAR
STARTCHAR AE
ENCODING 198
SWIDTH 1172 0
DWIDTH 9 0
BBX 10 8 0 -1
BITMAP
0000148B00
000EFE8700
00006A0000
00032D1500
00061FE732
006FFF55B4
05910D8410
EED0310000
ENDCHAR
STARTCHAR Ccedilla
ENCODING 199
SWIDTH 742 0
DWIDTH 6 0
BBX 6 9 0 -3
BITMAP
000003
19EFE4
9C2046
D40000
D60003
9D4037
09EFB1
000510
006E20
ENDCHAR
STARTCHAR Egrave
ENCODING 200
SWIDTH 557 0
DWIDTH 4 0
BBX 5 11 0 -2
BITMAP
370000
070000
000000
558C00
5C1000
1D1000
0EE000
0B4000
0B1140
CFEE50
001310
ENDCHAR
STARTCHAR Eacute
ENCODING 201
SWIDTH 557 0
DWIDTH 4 0
BBX 5 11 0 -2
BITMAP
006100
006000
000000
558C00
5C1000
1D1000
0EE000
0B4000
0B1140
CFEE50
001310
ENDCHAR
STARTCHAR Ecircumflex
ENCODING 202
SWIDTH 557 0
DWIDTH 4 0
BBX 5 11 0 -2
BITMAP
02A200
133A00
000000
558C00
5C1000
1D1000
0EE000
0B4000
0B1140
CFEE50
001310
ENDCHAR
STARTCHAR Edieresis
ENCODING 203
SWIDTH 557 0
DWIDTH 4 0
BBX 5 10 0 -2
BITMAP
0C7400
000000
558C00
5C1000
1D1000
0EE000
0B4000
0B1140
CFEE50
001310
ENDCHAR
STARTCHAR Igrave
ENCODING 204
SWIDTH 438 0
DWIDTH 4 0
BBX 5 11 -1 -2
BITMAP
037000
007100
1DDDD0
02E700
00D200
00C000
00B000
00A000
00B000
09FB00
341000
ENDCHAR
STARTCHAR Iacute
ENCODING 205
SWIDTH 438 0
DWIDTH 4 0
BBX 5 11 -1 -2
BITMAP
000700
000600
1DDDD0
02E700
00D200
00C000
00B000
00A000
00B000
09FB00
341000
ENDCHAR
STARTCHAR Icircumflex
ENCODING 206
SWIDTH 438 0
DWIDTH 4 0
BBX 5 11 -1 -2
BITMAP
004910
022670
1DDDD0
02E700
00D200
00C000
00B000
00A000
00B000
09FB00
341000
ENDCHAR
STARTCHAR Idieresis
ENCODING 207
SWIDTH 438 0
DWIDTH 4 0
BBX 5 10 -1 -2
BITMAP
039A00
1DDDD0
02E700
00D200
00C000
00B000
00A000
00B000
09FB00
341000
ENDCHAR
STARTCHAR Eth
ENCODING 208
SWIDTH 730 0
DWIDTH 6 0
BBX 6 7 0 -2
BITMAP
8CEEA1
1C24EA
0B308D
9FB09C
1C34E6
2FFB50
730000
ENDCHAR
STARTCHAR Ntilde
ENCODING 209
SWIDTH 799 0
DWIDTH 6 0
BBX 7 11 0 -3
BITMAP
004FE200
00000000
01000110
EF80EF50
0CF81600
048F9400
0409F400
04008300
17000000
DF600000
01200000
ENDCHAR
STARTCHAR Ograve
ENCODING 210
SWIDTH 747 0
DWIDTH 6 0
BBX 6 9 0 0
BITMAP
073000
007000
000000
19ED80
9813D8
D1006D
D2004D
9B21A8
19EE91
ENDCHAR
STARTCHAR Oacute
ENCODING 211
SWIDTH 747 0
DWIDTH 6 0
BBX 6 9 0 0
BITMAP
001600
004100
000000
19ED80
9813D8
D1006D
D2004D
9B21A8
19EE91
ENDCHAR
STARTCHAR Ocircumflex
ENCODING 212
SWIDTH 747 0
DWIDTH 6 0
BBX 6 8 0 0
BITMAP
007600
031940
19ED80
9813D8
D1006D
D2004D
9B21A8
19EE91
ENDCHAR
STARTCHAR Otilde
ENCODING 213
SWIDTH 747 0
DWIDTH 6 0
BBX 6 8 0 0
BITMAP
03FF30
000000
19ED80
9813D8
D1006D
D2004D
9B21A8
19EE91
ENDCHAR
STARTCHAR Odieresis
ENCODING 214
SWIDTH 747 0
DWIDTH 6 0
BBX 6 8 0 0
BITMAP
02AA00
000000
19ED80
9813D8
D1006D
D2004D
9B21A8
19EE91
ENDCHAR
STARTCHAR multiply
ENCODING 215
SWIDTH 541 0
DWIDTH 4 0
BBX 4 5 0 0
BITMAP
0004
1332
0570
0512
4100
ENDCHAR
STARTCHAR Oslash
ENCODING 216
SWIDTH 747 0
DWIDTH 6 0
BBX 6 8 0 -1
BITMAP
000004
19EEA1
9813E8
D1066D
D3604D
8D21A8
1BEE91
300000
ENDCHAR
STARTCHAR Ugrave
ENCODING 217
SWIDTH 690 0
DWIDTH 6 0
BBX 6 9 0 0
BITMAP
009100
002500
000000
138400
EFADED
2F2080
0F2040
0D8170
04DE40
ENDCHAR
STARTCHAR Uacute
ENCODING 218
SWIDTH 690 0
DWIDTH 6 0
BBX 6 8 0 0
BITMAP
000061
000060
138400
EFADED
2F2080
0F2040
0D8170
04DE40
ENDCHAR
STARTCHAR Ucircumflex
ENCODING 219
SWIDTH 690 0
DWIDTH 6 0
BBX 6 8 0 0
BITMAP
001A30
0042B0
138400
EFADED
2F2080
0F2040
0D8170
04DE40
ENDCHAR
STARTCHAR Udieresis
ENCODING 220
SWIDTH 690 0
DWIDTH 6 0
BBX 6 8 0 0
BITMAP
00A660
000000
138400
EFADED
2F2080
0F2040
0D8170
04DE40
ENDCHAR
STARTCHAR Yacute
ENCODING 221
SWIDTH 796 0
DWIDTH 6 0
BBX 8 11 0 -2
BITMAP
00006100
00006000
01400300
DF801EF1
1AA02400
009D6000
000D0000
000C1000
001E2000
01FFA000
00013000
ENDCHAR
STARTCHAR Thorn
ENCODING 222
SWIDTH 479 0
DWIDTH 4 0
BBX 4 9 0 -1
BITMAP
AF70
1B00
0FF8
193E
1FF8
2900
4A00
BF40
0010
ENDCHAR
STARTCHAR germandbls
ENCODING 223
SWIDTH 591 0
DWIDTH 5 0
BBX 6 9 -1 -1
BITMAP
08E600
082A00
071300
087E80
0905E5
083058
058038
05BBD2
130000
ENDCHAR
STARTCHAR agrave
ENCODING 224
SWIDTH 527 0
DWIDTH 4 0
BBX 5 8 0 -1
BITMAP
810000
160000
4EA000
55C200
009500
8EF800
AE9B20
000D40
ENDCHAR
STARTCHAR aacute
ENCODING 225
SWIDTH 527 0
DWIDTH 4 0
BBX 5 8 0 -1
BITMAP
007000
024000
4EA000
55C200
009500
8EF800
AE9B20
000D40
ENDCHAR
STARTCHAR acircumflex
ENCODING 226
SWIDTH 527 0
DWIDTH 4 0
BBX 5 8 0 -1
BITMAP
058000
227600
4EA000
55C200
009500
8EF800
AE9B20
000D40
ENDCHAR
STARTCHAR atilde
ENCODING 227
SWIDTH 527 0
DWIDTH 4 0
BBX 5 7 0 -1
BITMAP
1EF500
4EA000
55C200
009500
8EF800
AE9B20
000D40
ENDCHAR
STARTCHAR adieresis
ENCODING 228
SWIDTH 527 0
DWIDTH 4 0
BBX 5 7 0 -1
BITMAP
298000
4EA000
55C200
009500
8EF800
AE9B20
000D40
ENDCHAR
STARTCHAR aring
ENCODING 229
SWIDTH 527 0
DWIDTH 4 0
BBX 5 9 0 -1
BITMAP
0BA000
0BA000
000000
4EA000
55C200
009500
8EF800
AE9B20
000D40
ENDCHAR
STARTCHAR ae
ENCODING 230
SWIDTH 700 0
DWIDTH 6 0
BBX 6 6 0 -1
BITMAP
000AD1
7D42A3
84FE90
4EB000
A2F515
9C6ED2
ENDCHAR
STARTCHAR ccedilla
ENCODING 231
SWIDTH 437 0
DWIDTH 4 0
BBX 4 6 0 -1
BITMAP
3DD1
A1D2
B214
5ED2
0450
0AA0
ENDCHAR
STARTCHAR egrave
ENCODING 232
SWIDTH 434 0
DWIDTH 3 0
BBX 4 7 0 0
BITMAP
5400
0700
0000
3DE3
CFD2
C514
5ED2
ENDCHAR
STARTCHAR eacute
ENCODING 233
SWIDTH 434 0
DWIDTH 3 0
BBX 4 7 0 0
BITMAP
0070
0230
0000
3DE3
CFD2
C514
5ED2
ENDCHAR
STARTCHAR ecircumflex
ENCODING 234
SWIDTH 434 0
DWIDTH 3 0
BBX 4 7 0 0
BITMAP
0670
2285
0000
3DE3
CFD2
C514
5ED2
ENDCHAR
STARTCHAR edieresis
ENCODING 235
SWIDTH 434 0
DWIDTH 3 0
BBX 4 6 0 0
BITMAP
0A90
0000
3DE3
CFD2
C514
5ED2
ENDCHAR
STARTCHAR igrave
ENCODING 236
SWIDTH 301 0
DWIDTH 2 0
BBX 4 7 -1 1
BITMAP
3700
0710
0000
0DB0
0490
0490
0CF4
ENDCHAR
STARTCHAR iacute
ENCODING 237
SWIDTH 301 0
DWIDTH 2 0
BBX 3 6 0 1
BITMAP
0700
0500
DB00
4900
4900
CF40
ENDCHAR
STARTCHAR icircumflex
ENCODING 238
SWIDTH 301 0
DWIDTH 2 0
BBX 4 6 -1 1
BITMAP
02A2
1339
0DB0
0490
0490
0CF4
ENDCHAR
STARTCHAR idieresis
ENCODING 239
SWIDTH 301 0
DWIDTH 2 0
BBX 3 5 0 1
BITMAP
8920
DB00
4900
4900
CF40
ENDCHAR
STARTCHAR eth
ENCODING 240
SWIDTH 476 0
DWIDTH 4 0
BBX 5 8 -1 -1
BITMAP
000200
4DE600
004B20
000470
02DE90
0853A0
078180
01CE20
ENDCHAR
STARTCHAR ntilde
ENCODING 241
SWIDTH 584 0
DWIDTH 5 0
BBX 5 7 0 -1
BITMAP
03FF30
020000
787D10
2A1950
0A0830
5FCF20
001230
ENDCHAR
STARTCHAR ograve
ENCODING 242
SWIDTH 400 0
DWIDTH 3 0
BBX 6 7 0 1
BITMAP
000094
820025
160041
000570
79E900
C2C000
8FB000
ENDCHAR
STARTCHAR oacute
ENCODING 243
SWIDTH 400 0
DWIDTH 3 0
BBX 6 7 0 1
BITMAP
000094
007025
023041
000570
79E900
C2C000
8FB000
ENDCHAR
STARTCHAR ocircumflex
ENCODING 244
SWIDTH 400 0
DWIDTH 3 0
BBX 6 7 0 1
BITMAP
000094
076025
319441
000570
79E900
C2C000
8FB000
ENDCHAR
STARTCHAR otilde
ENCODING 245
SWIDTH 400 0
DWIDTH 3 0
BBX 6 7 0 1
BITMAP
000094
000025
2EF441
000570
79E900
C2C000
8FB000
ENDCHAR
STARTCHAR odieresis
ENCODING 246
SWIDTH 400 0
DWIDTH 3 0
BBX 6 7 0 1
BITMAP
000094
000025
199041
000570
79E900
C2C000
8FB000
ENDCHAR
STARTCHAR divide
ENCODING 247
SWIDTH 592 0
DWIDTH 5 0
BBX 5 4 0 1
BITMAP
028000
000000
8EDD40
028000
ENDCHAR
STARTCHAR oslash
ENCODING 248
SWIDTH 396 0
DWIDTH 3 0
BBX 3 5 0 0
BITMAP
0200
7EA0
C6D0
8F80
4100
ENDCHAR
STARTCHAR ugrave
ENCODING 249
SWIDTH 744 0
DWIDTH 6 0
BBX 6 7 0 0
BITMAP
037000
007100
000000
CB1FA0
0C01C0
0A53DD
04E821
ENDCHAR
STARTCHAR uacute
ENCODING 250
SWIDTH 744 0
DWIDTH 6 0
BBX 6 7 0 0
BITMAP
001600
005100
000000
CB1FA0
0C01C0
0A53DD
04E821
ENDCHAR
STARTCHAR ucircumflex
ENCODING 251
SWIDTH 744 0
DWIDTH 6 0
BBX 6 6 0 0
BITMAP
009400
041B10
CB1FA0
0C01C0
0A53DD
04E821
ENDCHAR
STARTCHAR udieresis
ENCODING 252
SWIDTH 744 0
DWIDTH 6 0
BBX 6 6 0 0
BITMAP
00A900
000000
CB1FA0
0C01C0
0A53DD
04E821
ENDCHAR
STARTCHAR yacute
ENCODING 253
SWIDTH 659 0
DWIDTH 5 0
BBX 6 10 0 -4
BITMAP
000700
286510
DC1EF2
4B04B0
1E26A0
07E990
000460
000720
0D8A00
0DD300
ENDCHAR
STARTCHAR thorn
ENCODING 254
SWIDTH 514 0
DWIDTH 4 0
BBX 5 11 -1 -4
BITMAP
6F7000
092000
081000
07DE40
0655C0
0664E0
06DF80
057000
068000
07B000
2FFA00
ENDCHAR
STARTCHAR ydieresis
ENCODING 255
SWIDTH 659 0
DWIDTH 5 0
BBX 6 10 0 -4
BITMAP
00A900
285010
DC1EF2
4B04B0
1E26A0
07E990
000460
000720
0D8A00
0DD300
ENDCHAR
STARTCHAR dotlessi
ENCODING 305
SWIDTH 301 0
DWIDTH 2 0
BBX 3 4 0 1
BITMAP
DB00
4900
4900
CF40
ENDCHAR
STARTCHAR OE
ENCODING 338
SWIDTH 1132 0
DWIDTH 9 0
BBX 9 9 0 -2
BITMAP
0000001510
19EE9EFE20
9A12BF1000
D3001F2400
D5000DD900
8E415F3200
08EE8C5160
00005EFFF0
0000531010
ENDCHAR
STARTCHAR oe
ENCODING 339
SWIDTH 798 0
DWIDTH 6 0
BBX 7 4 0 1
BITMAP
5EB5EA00
B19FF800
C44F4230
4EC8FC10
ENDCHAR
STARTCHAR circumflex
ENCODING 710
SWIDTH 483 0
DWIDTH 4 0
BBX 4 2 0 5
BITMAP
0580
2276
ENDCHAR
STARTCHAR caron
ENCODING 711
SWIDTH 428 0
DWIDTH 3 0
BBX 3 2 0 6
BITMAP
3340
0900
ENDCHAR
STARTCHAR ring
ENCODING 730
SWIDTH 330 0
DWIDTH 3 0
BBX 3 2 0 7
BITMAP
6E20
6E10
ENDCHAR
STARTCHAR tilde
ENCODING 732
SWIDTH 433 0
DWIDTH 3 0
BBX 3 1 0 6
BITMAP
6FE0
ENDCHAR
STARTCHAR mu.dup1
ENCODING 956
SWIDTH 634 0
DWIDTH 5 0
BBX 5 8 0 -3
BITMAP
000100
A12A00
A10B00
972E40
9BDBD0
830000
850000
770000
ENDCHAR
STARTCHAR endash
ENCODING 8211
SWIDTH 436 0
DWIDTH 3 0
BBX 3 2 0 2
BITMAP
1000
6ED0
ENDCHAR
STARTCHAR emdash
ENCODING 8212
SWIDTH 651 0
DWIDTH 5 0
BBX 5 2 0 1
BITMAP
159DB0
232100
ENDCHAR
STARTCHAR quoteleft
ENCODING 8216
SWIDTH 287 0
DWIDTH 2 0
BBX 2 3 0 4
BITMAP
15
87
7A
ENDCHAR
STARTCHAR quoteright
ENCODING 8217
SWIDTH 291 0
DWIDTH 2 0
BBX 2 3 0 3
BITMAP
7B
2C
05
ENDCHAR
STARTCHAR quotesinglbase
ENCODING 8218
SWIDTH 272 0
DWIDTH 2 0
BBX 2 3 0 -2
BITMAP
79
29
13
ENDCHAR
STARTCHAR quotedblleft
ENCODING 8220
SWIDTH 445 0
DWIDTH 4 0
BBX 4 3 0 4
BITMAP
1550
75B0
79C1
ENDCHAR
STARTCHAR quotedblright
ENCODING 8221
SWIDTH 444 0
DWIDTH 4 0
BBX 4 3 0 4
BITMAP
79E1
29B1
1540
ENDCHAR
STARTCHAR quotedblbase
ENCODING 8222
SWIDTH 482 0
DWIDTH 4 0
BBX 4 3 0 -2
BITMAP
7BB5
3C75
0550
ENDCHAR
STARTCHAR bullet
ENCODING 8226
SWIDTH 351 0
DWIDTH 3 0
BBX 3 2 0 2
BITMAP
6E30
6E30
ENDCHAR
STARTCHAR guilsinglleft
ENCODING 8249
SWIDTH 465 0
DWIDTH 4 0
BBX 4 6 0 -1
BITMAP
0010
0050
1910
4D20
0290
0012
ENDCHAR
STARTCHAR guilsinglright
ENCODING 8250
SWIDTH 449 0
DWIDTH 4 0
BBX 3 6 0 -1
BITMAP
1000
1600
0780
0960
3600
4000
ENDCHAR
STARTCHAR fraction
ENCODING 8260
SWIDTH 406 0
DWIDTH 3 0
BBX 7 8 -2 0
BITMAP
00000110
00000500
00005200
00024000
00060000
00610000
03300000
15000000
ENDCHAR
STARTCHAR foursuperior
ENCODING 8308
SWIDTH 473 0
DWIDTH 4 0
BBX 4 6 0 1
BITMAP
0410
0820
0561
9EF2
1CF9
0100
ENDCHAR
STARTCHAR Euro
ENCODING 8364
SWIDTH 799 0
DWIDTH 6 0
BBX 7 7 0 0
BITMAP
00000010
007DEA50
07D30710
1D630000
7F610000
1B911500
02BFC100
ENDCHAR
STARTCHAR minus
ENCODING 8722
SWIDTH 436 0
DWIDTH 3 0
BBX 3 2 0 2
BITMAP
1000
6ED0
ENDCHAR
STARTCHAR f_f
ENCODING 64256
SWIDTH 467 0
DWIDTH 4 0
BBX 5 12 0 -3
BITMAP
07E300
076E70
34A780
457100
8EE700
459000
37A000
299400
1C8F20
0D6200
1E5000
BEF200
ENDCHAR
STARTCHAR .notdef
ENCODING -1
SWIDTH 270 0
DWIDTH 2 0
BBX 2 5 0 0
BITMAP
BD
00
00
00
BD
ENDCHAR
STARTCHAR .null
ENCODING -1
SWIDTH 0 0
DWIDTH 0 0
BBX 1 1 0 0
BITMAP
00
ENDCHAR
STARTCHAR nonmarkingreturn
ENCODING -1
SWIDTH 270 0
DWIDTH 2 0
BBX 1 1 0 0
BITMAP
00
ENDCHAR
STARTCHAR dieresis.case
ENCODING -1
SWIDTH 393 0
DWIDTH 3 0
BBX 3 1 0 6
BITMAP
7690
ENDCHAR
STARTCHAR o.cmp
ENCODING -1
SWIDTH 400 0
DWIDTH 3 0
BBX 6 7 0 1
BITMAP
000094
000025
000041
000570
79E900
C2C000
8FB000
ENDCHAR
STARTCHAR n_n
ENCODING -1
SWIDTH 1024 0
DWIDTH 8 0
BBX 9 6 0 -1
BITMAP
D700000000
19BE200000
0B19BCDB00
09083C1C00
5FCFCEFE10
0001500200
ENDCHAR
STARTCHAR a_a
ENCODING -1
SWIDTH 911 0
DWIDTH 7 0
BBX 8 6 0 -1
BITMAP
0003EC10
6E566750
9288ED70
7ECD7870
AD9FEB90
000001D7
ENDCHAR
STARTCHAR t_h
ENCODING -1
SWIDTH 854 0
DWIDTH 7 0
BBX 8 10 -1 -1
BITMAP
004FD000
0000B000
0054A000
1DFFF400
00C0CDD3
00C2C179
00D69969
005DFA56
004FF7A6
000009FC
ENDCHAR
STARTCHAR s_s
ENCODING -1
SWIDTH 654 0
DWIDTH 5 0
BBX 6 7 0 -1
BITMAP
000110
0CDEC0
054850
302410
8796A0
0CD5F1
03DE90
ENDCHAR
STARTCHAR t_t
ENCODING -1
SWIDTH 569 0
DWIDTH 5 0
BBX 5 8 0 -1
BITMAP
00B200
18D700
EFD000
49A000
48C560
496E50
1D1000
06ED00
ENDCHAR
STARTCHAR e_e
ENCODING -1
SWIDTH 782 0
DWIDTH 6 0
BBX 7 5 0 0
BITMAP
4E7AE400
B3AB1700
EC681600
B62CA510
2CFEFC00
ENDCHAR
STARTCHAR o_o
ENCODING -1
SWIDTH 751 0
DWIDTH 6 0
BBX 9 8 0 1
BITMAP
0000000C10
0000000520
0000000600
0000017600
4DFD6E7000
B3492A0000
C16EF80000
5EB0000000
ENDCHAR
STARTCHAR l_l
ENCODING -1
SWIDTH 573 0
DWIDTH 5 0
BBX 6 8 -1 -1
BITMAP
2D8F90
067690
067490
0674A0
0673D0
0785F9
5F9000
026100
ENDCHAR
STARTCHAR z_z
ENCODING -1
SWIDTH 875 0
DWIDTH 7 0
BBX 7 5 0 -1
BITMAP
00EFA000
7FD53000
06380000
255FF5D0
CEFFFE90
ENDCHAR
STARTCHAR j_j
ENCODING -1
SWIDTH 577 0
DWIDTH 5 0
BBX 6 12 -1 -5
BITMAP
000A30
00A220
001EC0
08FAF1
009AA3
002B65
000B46
000A37
9A1826
818434
7EF871
003E60
ENDCHAR
STARTCHAR f_b
ENCODING -1
SWIDTH 731 0
DWIDTH 6 0
BBX 7 11 -1 -2
BITMAP
004E7000
0093A000
00878000
06ADD000
4C91B000
0390A000
03A0BE80
03A0A3C0
03C3FF80
03FB1000
03100000
ENDCHAR
STARTCHAR f_k
ENCODING -1
SWIDTH 708 0
DWIDTH 6 0
BBX 6 10 0 -2
BITMAP
025000
4CFC00
01AC00
159100
85A6D0
45CA11
45BB25
B7D5E5
0CFF10
010100
ENDCHAR
STARTCHAR f_h
ENCODING -1
SWIDTH 873 0
DWIDTH 7 0
BBX 8 11 -1 -2
BITMAP
003E7000
0073A000
0077A300
01BFF100
18C29000
3A909000
03909AE3
03A0B395
03B0C0CE
06FFF311
04101100
ENDCHAR
ENDFONT
